<svg width="40" height="40" viewBox="0 0 40 40" fill="none" xmlns="http://www.w3.org/2000/svg">
<path d="M21 6C20.7348 6 20.4804 6.10536 20.2929 6.29289C20.1054 6.48043 20 6.73478 20 7V33C20 33.2652 20.1054 33.5196 20.2929 33.7071C20.4804 33.8946 20.7348 34 21 34H25C25.2652 34 25.5196 33.8946 25.7071 33.7071C25.8946 33.5196 26 33.2652 26 33V7C26 6.73478 25.8946 6.48043 25.7071 6.29289C25.5196 6.10536 25.2652 6 25 6H21ZM20 16.964C19.9934 16.7838 19.9383 16.6088 19.8404 16.4574C19.7426 16.306 19.6056 16.1839 19.444 16.104L15.444 14.104C15.2066 13.9861 14.9321 13.9673 14.6809 14.0517C14.4296 14.136 14.2221 14.3167 14.104 14.554L6.104 30.554C5.98611 30.7914 5.96728 31.0659 6.05166 31.3171C6.13604 31.5684 6.31672 31.7759 6.554 31.894L10.554 33.894C10.7911 34.012 11.0654 34.0311 11.3167 33.9472C11.5679 33.8632 11.7755 33.6829 11.894 33.446L19.894 17.446C19.9687 17.2973 20.0052 17.1303 20 16.964ZM22 8H24V32H22V8ZM29 10C28.7348 10 28.4804 10.1054 28.2929 10.2929C28.1054 10.4804 28 10.7348 28 11V33C28 33.2652 28.1054 33.5196 28.2929 33.7071C28.4804 33.8946 28.7348 34 29 34H33C33.2652 34 33.5196 33.8946 33.7071 33.7071C33.8946 33.5196 34 33.2652 34 33V11C34 10.7348 33.8946 10.4804 33.7071 10.2929C33.5196 10.1054 33.2652 10 33 10H29Z" fill="#D9DCF0"/>
</svg>
