<svg width="40" height="40" viewBox="0 0 40 40" fill="none" xmlns="http://www.w3.org/2000/svg">
<path d="M13.3333 11.6667V25C13.3333 26.8409 14.8257 28.3333 16.6666 28.3333H26.6666M13.3333 11.6667V8.33333C13.3333 6.49238 14.8257 5 16.6666 5H24.3096C24.7516 5 25.1756 5.17559 25.4881 5.48816L32.8451 12.8452C33.1577 13.1577 33.3333 13.5817 33.3333 14.0237V25C33.3333 26.8409 31.8409 28.3333 30 28.3333H26.6666M13.3333 11.6667H8.66663C7.56206 11.6667 6.66663 12.5621 6.66663 13.6667V31.6667C6.66663 33.5076 8.15901 35 9.99996 35H24.6666C25.7712 35 26.6666 34.1046 26.6666 33V28.3333" stroke="#D9DCF0" stroke-width="2" stroke-linecap="round" stroke-linejoin="round"/>
</svg>
