<svg width="33" height="33" viewBox="0 0 33 33" fill="none" xmlns="http://www.w3.org/2000/svg">
<path d="M17.966 0C17.4366 0.00842586 16.9322 0.226431 16.5632 0.606217C16.1943 0.986004 15.9911 1.49658 15.998 2.026V16.026H13.794L11.974 3.734C11.9446 3.46666 11.8615 3.208 11.7298 2.9735C11.5981 2.73899 11.4205 2.53346 11.2075 2.36919C10.9946 2.20493 10.7507 2.0853 10.4904 2.01747C10.2301 1.94965 9.95887 1.93501 9.69282 1.97444C9.42677 2.01387 9.17141 2.10655 8.94201 2.24695C8.7126 2.38735 8.51388 2.57258 8.35771 2.79155C8.20154 3.01052 8.09115 3.25874 8.03312 3.52137C7.9751 3.78399 7.97064 4.05562 8.02002 4.32L10 17.66V22.026H8.00002V18.534L2.81802 16.204C2.39696 16.0161 1.92391 15.9794 1.47893 16.1002C1.03395 16.221 0.644378 16.4919 0.376155 16.8669C0.107931 17.242 -0.0224684 17.6982 0.00702819 18.1583C0.0365248 18.6185 0.224105 19.0543 0.53802 19.392L7.53802 26.892C10.438 30 14.312 32.178 17.782 32.002C19.9367 31.8451 21.9974 31.0571 23.7071 29.7365C25.4168 28.4159 26.6998 26.6211 27.396 24.576L31.908 12.036C31.9844 11.8488 32.022 11.648 32.0188 11.4459C32.0156 11.2437 31.9715 11.0443 31.8893 10.8595C31.807 10.6748 31.6883 10.5087 31.5402 10.371C31.3921 10.2334 31.2177 10.1271 31.0274 10.0585C30.8372 9.98999 30.6351 9.96062 30.4332 9.97219C30.2314 9.98375 30.0339 10.036 29.8528 10.1258C29.6716 10.2156 29.5105 10.3411 29.3791 10.4948C29.2476 10.6485 29.1486 10.8271 29.088 11.02L27.288 16.028H25.806L27.962 4.392C28.0221 4.12908 28.0283 3.85673 27.9804 3.59133C27.9325 3.32593 27.8314 3.07297 27.6832 2.84765C27.535 2.62232 27.3427 2.4293 27.118 2.28019C26.8933 2.13108 26.6407 2.02896 26.3755 1.97997C26.1103 1.93098 25.838 1.93613 25.5748 1.99511C25.3116 2.05409 25.0631 2.16569 24.8442 2.32319C24.6253 2.4807 24.4405 2.68085 24.3009 2.91161C24.1613 3.14237 24.0699 3.39898 24.032 3.666L21.744 16.028H19.998V2.028C20.0015 1.76046 19.9513 1.49494 19.8504 1.24715C19.7494 0.999365 19.5998 0.774352 19.4103 0.585438C19.2208 0.396524 18.9954 0.247548 18.7473 0.147331C18.4992 0.0471152 18.2335 -0.00430404 17.966 0Z" fill="#D9DCF0"/>
</svg>
