<svg width="40" height="40" viewBox="0 0 40 40" fill="none" xmlns="http://www.w3.org/2000/svg">
<path d="M28.3333 26.6667V30C28.3333 31.841 26.8409 33.3333 25 33.3333H8.33333C6.49238 33.3333 5 31.841 5 30V18.3333C5 16.4924 6.49238 15 8.33333 15H11.6667M16.6667 8.33333H15C13.1591 8.33333 11.6667 9.82572 11.6667 11.6667V23.3333C11.6667 25.1743 13.1591 26.6667 15 26.6667H31.6667C33.5076 26.6667 35 25.1743 35 23.3333V11.6667C35 9.82572 33.5076 8.33333 31.6667 8.33333H30M28.3333 15L23.3333 20M23.3333 20L18.3333 15M23.3333 20L23.3333 5" stroke="#D9DCF0" stroke-width="2" stroke-linecap="round" stroke-linejoin="round"/>
</svg>
