<svg width="28" height="28" viewBox="0 0 28 28" fill="none" xmlns="http://www.w3.org/2000/svg">
<path d="M18.0081 -0.00402832C12.5121 -0.00402832 8.0081 4.49997 8.0081 9.99597C8.0081 12.384 8.89011 14.56 10.3041 16.286L0.30011 26.288C0.112337 26.4757 0.00683594 26.7304 0.00683594 26.996C0.00683594 27.2615 0.112337 27.5162 0.30011 27.704C0.487883 27.8918 0.742551 27.9972 1.0081 27.9972C1.27365 27.9972 1.52832 27.8918 1.71609 27.704L11.7181 17.6999C13.4441 19.114 15.6181 19.996 18.0081 19.996C23.5041 19.996 28.0081 15.492 28.0081 9.99597C28.0081 4.49997 23.5041 -0.00402832 18.0081 -0.00402832ZM18.0081 1.99597C22.4121 1.99597 26.0081 5.59197 26.0081 9.99597C26.0081 14.4 22.4121 17.996 18.0081 17.996C13.6041 17.996 10.0081 14.4 10.0081 9.99597C10.0081 5.59197 13.6041 1.99597 18.0081 1.99597Z" fill="#D9DCF0"/>
</svg>
